<svg xmlns="http://www.w3.org/2000/svg" viewBox="0 0 720 420" fill="none" aria-hidden="true">
  <defs>
    <linearGradient id="g" x1="0%" y1="0%" x2="100%" y2="100%">
      <stop offset="0%" stop-color="#9ef0d0" stop-opacity="0.35"/>
      <stop offset="100%" stop-color="#72d8b7" stop-opacity="0.12"/>
    </linearGradient>
    <filter id="s" x="-20%" y="-20%" width="140%" height="140%">
      <feDropShadow dx="0" dy="8" stdDeviation="12" flood-color="#000" flood-opacity="0.45"/>
    </filter>
  </defs>
  <rect width="720" height="420" rx="24" fill="#0b171d" stroke="url(#g)" stroke-width="1"/>
  <text x="360" y="36" text-anchor="middle" fill="#e8f7f2" font-family="system-ui,Segoe UI,sans-serif" font-size="14" font-weight="600">Outgoing transaction</text>
  <rect x="260" y="52" width="200" height="44" rx="12" fill="#061015" stroke="rgba(158,240,208,0.45)" stroke-width="1.25" filter="url(#s)"/>
  <text x="360" y="80" text-anchor="middle" fill="#e8f7f2" font-family="system-ui,Segoe UI,sans-serif" font-size="13" font-weight="600">Transaction proposed</text>
  <path d="M360 96v14" stroke="#9bb4ad" stroke-width="1.5" stroke-linecap="round"/>
  <path d="M356 108l4 6 4-6" stroke="#9bb4ad" stroke-width="1.5" fill="none" stroke-linecap="round" stroke-linejoin="round"/>
  <rect x="240" y="118" width="240" height="52" rx="14" fill="#061015" stroke="rgba(158,240,208,0.55)" stroke-width="1.25"/>
  <text x="360" y="142" text-anchor="middle" fill="#9ef0d0" font-family="system-ui,Segoe UI,sans-serif" font-size="13" font-weight="700">Hard rules (YAML)</text>
  <text x="360" y="160" text-anchor="middle" fill="#9bb4ad" font-family="system-ui,Segoe UI,sans-serif" font-size="11">Plain-English policies · AI cannot override</text>
  <path d="M480 144h72q8 0 8 8v-32q0-8 8-8h32" stroke="rgba(240,137,127,0.85)" stroke-width="1.25" fill="none"/>
  <path d="M596 112v-6l4 4 4-4v6" stroke="rgba(240,137,127,0.85)" stroke-width="1.25" fill="none"/>
  <text x="548" y="128" text-anchor="middle" fill="#f0897f" font-family="system-ui,Segoe UI,sans-serif" font-size="11">violates?</text>
  <rect x="508" y="88" width="112" height="36" rx="10" fill="rgba(240,137,127,0.12)" stroke="rgba(240,137,127,0.85)" stroke-width="1"/>
  <text x="564" y="110" text-anchor="middle" fill="#f0897f" font-family="system-ui,Segoe UI,sans-serif" font-size="12" font-weight="600">Rejected</text>
  <path d="M360 170v16" stroke="#9bb4ad" stroke-width="1.5" stroke-linecap="round"/>
  <path d="M356 182l4 6 4-6" stroke="#9bb4ad" stroke-width="1.5" fill="none"/>
  <text x="378" y="186" fill="#9bb4ad" font-family="system-ui,Segoe UI,sans-serif" font-size="10">ok</text>
  <rect x="240" y="198" width="240" height="52" rx="14" fill="#061015" stroke="rgba(158,240,208,0.45)" stroke-width="1.25"/>
  <text x="360" y="222" text-anchor="middle" fill="#e8f7f2" font-family="system-ui,Segoe UI,sans-serif" font-size="13" font-weight="600">AI review</text>
  <text x="360" y="240" text-anchor="middle" fill="#9bb4ad" font-family="system-ui,Segoe UI,sans-serif" font-size="11">Simulation · anomaly detection</text>
  <path d="M480 224h56q8 0 8 8v36q0 8 8 8h40" stroke="rgba(245,201,122,0.9)" stroke-width="1.25" fill="none"/>
  <text x="548" y="218" text-anchor="middle" fill="#f5c97a" font-family="system-ui,Segoe UI,sans-serif" font-size="11">suspicious?</text>
  <rect x="500" y="232" width="128" height="44" rx="12" fill="rgba(245,201,122,0.1)" stroke="rgba(245,201,122,0.75)" stroke-width="1"/>
  <text x="564" y="252" text-anchor="middle" fill="#f5c97a" font-family="system-ui,Segoe UI,sans-serif" font-size="11" font-weight="600">Alert</text>
  <text x="564" y="268" text-anchor="middle" fill="#9bb4ad" font-family="system-ui,Segoe UI,sans-serif" font-size="10">Telegram · Signal · HW</text>
  <path d="M360 250v18" stroke="#9bb4ad" stroke-width="1.5"/>
  <path d="M356 264l4 6 4-6" stroke="#9bb4ad" stroke-width="1.5" fill="none"/>
  <text x="382" y="268" fill="#9bb4ad" font-family="system-ui,Segoe UI,sans-serif" font-size="10">clean</text>
  <rect x="260" y="276" width="200" height="40" rx="12" fill="#061015" stroke="rgba(158,240,208,0.4)" stroke-width="1"/>
  <text x="360" y="301" text-anchor="middle" fill="#e8f7f2" font-family="system-ui,Segoe UI,sans-serif" font-size="12" font-weight="600">Agent co-signs</text>
  <path d="M564 276v28q0 4-4 4h-196q-4 0-4 4v8" stroke="rgba(245,201,122,0.55)" stroke-width="1.25" fill="none" stroke-dasharray="4 3"/>
  <text x="430" y="312" text-anchor="middle" fill="#9bb4ad" font-family="system-ui,Segoe UI,sans-serif" font-size="10">you approve or reject</text>
  <path d="M360 316v14" stroke="#9bb4ad" stroke-width="1.5"/>
  <path d="M356 326l4 6 4-6" stroke="#9bb4ad" stroke-width="1.5" fill="none"/>
  <rect x="250" y="338" width="220" height="44" rx="12" fill="rgba(158,240,208,0.08)" stroke="rgba(158,240,208,0.45)" stroke-width="1.25"/>
  <text x="360" y="366" text-anchor="middle" fill="#9ef0d0" font-family="system-ui,Segoe UI,sans-serif" font-size="13" font-weight="700">Execution</text>
</svg>
